<svg width="53" height="53" viewBox="0 0 53 53" fill="none" xmlns="http://www.w3.org/2000/svg">
<rect width="53" height="53" fill="#E9C46A"/>
<path d="M9.8262 20.14H13.9772L14.6153 39.22H9.27394L9.8262 20.14ZM6.36 40.28H46.64V42.4H49.82V45.58H51.94V47.7H1.06V45.58H3.18V42.4H6.36V40.28ZM48.76 14.6407L26.5021 5.29999L4.24 14.6407V15.9H48.76V14.6407ZM8.48 16.96H44.52V19.08H8.48V16.96ZM38.9402 20.14H43.089L43.7324 39.22H38.3837L38.9402 20.14ZM29.239 20.14H33.3879L34.0239 39.22H28.6804L29.239 20.14ZM19.5358 20.14H23.6857L24.3175 39.22H18.9761L19.5358 20.14Z" fill="#21272A"/>
</svg>
